<?xml version="1.0" encoding="utf-8"?><svg viewBox="0 0 24 24" xmlns="http://www.w3.org/2000/svg" xmlns:xlink="http://www.w3.org/1999/xlink"><style>:root>svg{display:none}:root>svg:target{display:block}</style><svg viewBox="0 0 24 24" class="icon-add-circle" id="icon-add-circle" xmlns="http://www.w3.org/2000/svg"><circle cx="12" cy="12" r="10" fill="var(--primary)"/><path class="secondary" d="M13 11h4a1 1 0 010 2h-4v4a1 1 0 01-2 0v-4H7a1 1 0 010-2h4V7a1 1 0 012 0v4z"/></svg><svg viewBox="0 0 24 24" class="icon-ancor" id="icon-ancor" xmlns="http://www.w3.org/2000/svg"><path d="M4 16V8H0V4h4V0h4v4h8V0h4v4h4v4h-4v8h4v4h-4v4h-4v-4H8v4H4v-4H0v-4h4zm4 0h8V8H8v8z"/></svg><svg viewBox="0 0 24 24" class="icon-attach" id="icon-attach" xmlns="http://www.w3.org/2000/svg"><path class="secondary" d="M20.12 11.95l-6.58 6.59a5 5 0 11-7.08-7.07l6.59-6.6a3 3 0 014.24 4.25l-6.58 6.59a1 1 0 11-1.42-1.42l6.59-6.58a1 1 0 00-1.42-1.42l-6.58 6.59a3 3 0 004.24 4.24l6.59-6.58a5 5 0 00-7.08-7.08l-6.58 6.6a7 7 0 009.9 9.9l6.59-6.6a1 1 0 00-1.42-1.4z"/></svg><svg viewBox="0 0 24 24" class="icon-calendar-date" id="icon-calendar-date" xmlns="http://www.w3.org/2000/svg"><path fill="var(--primary)" d="M5 4h14a2 2 0 012 2v13a2 2 0 01-2 2H5a2 2 0 01-2-2V6c0-1.1.9-2 2-2zm0 5v10h14V9H5z"/><path class="secondary" d="M13 13h3v3h-3v-3zM7 2a1 1 0 011 1v3a1 1 0 11-2 0V3a1 1 0 011-1zm10 0a1 1 0 011 1v3a1 1 0 01-2 0V3a1 1 0 011-1z"/></svg><svg viewBox="0 0 24 24" class="icon-check" id="icon-check" xmlns="http://www.w3.org/2000/svg"><circle cx="12" cy="12" r="10" fill="var(--primary)"/><path class="secondary" d="M10 14.59l6.3-6.3a1 1 0 011.4 1.42l-7 7a1 1 0 01-1.4 0l-3-3a1 1 0 011.4-1.42l2.3 2.3z"/></svg><svg viewBox="0 0 24 24" class="icon-door-enter" id="icon-door-enter" xmlns="http://www.w3.org/2000/svg"><path fill="var(--primary)" d="M13 4V3a1 1 0 011.27-.96l6.98 2A1 1 0 0122 5v14a1 1 0 01-.75.97l-6.98 2A1 1 0 0113 21v-1h-3a1 1 0 01-1-1v-2a1 1 0 012 0v1h2V6h-2v1a1 1 0 01-2 0V5a1 1 0 011-1h3z"/><path class="secondary" d="M7.59 11l-1.3-1.3c-.94-.94.47-2.35 1.42-1.4l3 3a1 1 0 010 1.4l-3 3c-.95.95-2.36-.46-1.42-1.4L7.6 13H3a1 1 0 010-2h4.59z"/></svg><svg viewBox="0 0 24 24" class="icon-pause" id="icon-pause" xmlns="http://www.w3.org/2000/svg"><circle cx="12" cy="12" r="10" fill="var(--primary)"/><path class="secondary" d="M9 8h1a1 1 0 011 1v6a1 1 0 01-1 1H9a1 1 0 01-1-1V9a1 1 0 011-1zm5 0h1a1 1 0 011 1v6a1 1 0 01-1 1h-1a1 1 0 01-1-1V9a1 1 0 011-1z"/></svg><svg viewBox="0 0 24 24" class="icon-play" id="icon-play" xmlns="http://www.w3.org/2000/svg"><circle cx="12" cy="12" r="10" fill="var(--primary)"/><path class="secondary" d="M15.51 11.14a1 1 0 010 1.72l-5 3A1 1 0 019 15V9a1 1 0 011.51-.86l5 3z"/></svg><svg viewBox="0 0 24 24" class="icon-time" id="icon-time" xmlns="http://www.w3.org/2000/svg"><circle cx="12" cy="12" r="10" fill="var(--primary)"/><path class="secondary" d="M13 11.59l3.2 3.2a1 1 0 01-1.4 1.42l-3.5-3.5A1 1 0 0111 12V7a1 1 0 012 0v4.59z"/></svg><svg viewBox="0 0 24 24" class="icon-user" id="icon-user" xmlns="http://www.w3.org/2000/svg"><path fill="var(--primary)" d="M12 12a5 5 0 110-10 5 5 0 010 10z"/><path class="secondary" d="M21 20v-1a5 5 0 00-5-5H8a5 5 0 00-5 5v1c0 1.1.9 2 2 2h14a2 2 0 002-2z"/></svg><svg viewBox="0 0 24 24" class="icon-user-add" id="icon-user-add" xmlns="http://www.w3.org/2000/svg"><path fill="var(--primary)" d="M9 11a4 4 0 110-8 4 4 0 010 8z"/><path class="secondary" d="M17 9V7a1 1 0 012 0v2h2a1 1 0 010 2h-2v2a1 1 0 01-2 0v-2h-2a1 1 0 010-2h2zm-1 10a2 2 0 01-2 2H4a2 2 0 01-2-2v-1a5 5 0 015-5h4a5 5 0 015 5v1z"/></svg></svg>