<?xml version="1.0" encoding="utf-8"?><svg viewBox="0 0 24 24" xmlns="http://www.w3.org/2000/svg" xmlns:xlink="http://www.w3.org/1999/xlink"><style>:root>svg{display:none}:root>svg:target{display:block}</style><svg viewBox="0 0 24 24" class="icon-add-circle" id="icon-add-circle" xmlns="http://www.w3.org/2000/svg"><circle cx="12" cy="12" r="10" fill="var(--primary)"/><path class="secondary" d="M13 11h4a1 1 0 010 2h-4v4a1 1 0 01-2 0v-4H7a1 1 0 010-2h4V7a1 1 0 012 0v4z"/></svg><svg viewBox="0 0 24 24" class="icon-ancor" id="icon-ancor" xmlns="http://www.w3.org/2000/svg"><path d="M4 16V8H0V4h4V0h4v4h8V0h4v4h4v4h-4v8h4v4h-4v4h-4v-4H8v4H4v-4H0v-4h4zm4 0h8V8H8v8z"/></svg><svg viewBox="0 0 24 24" class="icon-attach" id="icon-attach" xmlns="http://www.w3.org/2000/svg"><path class="secondary" d="M20.12 11.95l-6.58 6.59a5 5 0 11-7.08-7.07l6.59-6.6a3 3 0 014.24 4.25l-6.58 6.59a1 1 0 11-1.42-1.42l6.59-6.58a1 1 0 00-1.42-1.42l-6.58 6.59a3 3 0 004.24 4.24l6.59-6.58a5 5 0 00-7.08-7.08l-6.58 6.6a7 7 0 009.9 9.9l6.59-6.6a1 1 0 00-1.42-1.4z"/></svg><svg viewBox="0 0 24 24" class="icon-calendar-date" id="icon-calendar-date" xmlns="http://www.w3.org/2000/svg"><path fill="var(--primary)" d="M5 4h14a2 2 0 012 2v13a2 2 0 01-2 2H5a2 2 0 01-2-2V6c0-1.1.9-2 2-2zm0 5v10h14V9H5z"/><path class="secondary" d="M13 13h3v3h-3v-3zM7 2a1 1 0 011 1v3a1 1 0 11-2 0V3a1 1 0 011-1zm10 0a1 1 0 011 1v3a1 1 0 01-2 0V3a1 1 0 011-1z"/></svg><svg viewBox="0 0 24 24" class="icon-chat-group-alt" id="icon-chat-group-alt" xmlns="http://www.w3.org/2000/svg"><rect width="16" height="13" x="2" y="2" class="secondary" rx="2"/><path fill="var(--primary)" d="M6 16V8c0-1.1.9-2 2-2h12a2 2 0 012 2v13a1 1 0 01-1.7.7L16.58 18H8a2 2 0 01-2-2z"/></svg><svg viewBox="0 0 24 24" class="icon-check" id="icon-check" xmlns="http://www.w3.org/2000/svg"><circle cx="12" cy="12" r="10" fill="var(--primary)"/><path class="secondary" d="M10 14.59l6.3-6.3a1 1 0 011.4 1.42l-7 7a1 1 0 01-1.4 0l-3-3a1 1 0 011.4-1.42l2.3 2.3z"/></svg><svg viewBox="0 0 24 24" class="icon-cheveron-down" id="icon-cheveron-down" xmlns="http://www.w3.org/2000/svg"><path class="secondary" fill-rule="evenodd" d="M15.3 10.3a1 1 0 011.4 1.4l-4 4a1 1 0 01-1.4 0l-4-4a1 1 0 011.4-1.4l3.3 3.29 3.3-3.3z"/></svg><svg viewBox="0 0 24 24" class="icon-cheveron-down-circle" id="icon-cheveron-down-circle" xmlns="http://www.w3.org/2000/svg"><circle cx="12" cy="12" r="10" fill="var(--primary)"/><path class="secondary" d="M15.3 10.3a1 1 0 011.4 1.4l-4 4a1 1 0 01-1.4 0l-4-4a1 1 0 011.4-1.4l3.3 3.29 3.3-3.3z"/></svg><svg viewBox="0 0 24 24" class="icon-close" id="icon-close" xmlns="http://www.w3.org/2000/svg"><path class="secondary" fill-rule="evenodd" d="M15.78 14.36a1 1 0 01-1.42 1.42l-2.82-2.83-2.83 2.83a1 1 0 11-1.42-1.42l2.83-2.82L7.3 8.7a1 1 0 011.42-1.42l2.83 2.83 2.82-2.83a1 1 0 011.42 1.42l-2.83 2.83 2.83 2.82z"/></svg><svg viewBox="0 0 24 24" class="icon-close-square" id="icon-close-square" xmlns="http://www.w3.org/2000/svg"><rect width="18" height="18" x="3" y="3" fill="var(--primary)" rx="2"/><path class="secondary" d="M13.41 12l2.83 2.83a1 1 0 01-1.41 1.41L12 13.41l-2.83 2.83a1 1 0 11-1.41-1.41L10.59 12 7.76 9.17a1 1 0 011.41-1.41L12 10.59l2.83-2.83a1 1 0 011.41 1.41L13.41 12z"/></svg><svg viewBox="0 0 24 24" class="icon-cloud-download" id="icon-cloud-download" xmlns="http://www.w3.org/2000/svg"><path fill="var(--primary)" d="M15 15v-3a3 3 0 00-6 0v3H6a4 4 0 01-.99-7.88 5.5 5.5 0 0110.86-.82A4.49 4.49 0 0122 10.5a4.5 4.5 0 01-4.5 4.5H15z"/><path class="secondary" d="M11 18.59V12a1 1 0 012 0v6.59l1.3-1.3a1 1 0 011.4 1.42l-3 3a1 1 0 01-1.4 0l-3-3a1 1 0 011.4-1.42l1.3 1.3z"/></svg><svg viewBox="0 0 24 24" class="icon-cloud-upload" id="icon-cloud-upload" xmlns="http://www.w3.org/2000/svg"><path fill="var(--primary)" d="M18 14.97c0-.76-.3-1.51-.88-2.1l-3-3a3 3 0 00-4.24 0l-3 3A3 3 0 006 15a4 4 0 01-.99-7.88 5.5 5.5 0 0110.86-.82A4.49 4.49 0 0122 10.5a4.5 4.5 0 01-4 4.47z"/><path class="secondary" d="M11 14.41V21a1 1 0 002 0v-6.59l1.3 1.3a1 1 0 001.4-1.42l-3-3a1 1 0 00-1.4 0l-3 3a1 1 0 001.4 1.42l1.3-1.3z"/></svg><svg viewBox="0 0 24 24" class="icon-door-enter" id="icon-door-enter" xmlns="http://www.w3.org/2000/svg"><path fill="var(--primary)" d="M13 4V3a1 1 0 011.27-.96l6.98 2A1 1 0 0122 5v14a1 1 0 01-.75.97l-6.98 2A1 1 0 0113 21v-1h-3a1 1 0 01-1-1v-2a1 1 0 012 0v1h2V6h-2v1a1 1 0 01-2 0V5a1 1 0 011-1h3z"/><path class="secondary" d="M7.59 11l-1.3-1.3c-.94-.94.47-2.35 1.42-1.4l3 3a1 1 0 010 1.4l-3 3c-.95.95-2.36-.46-1.42-1.4L7.6 13H3a1 1 0 010-2h4.59z"/></svg><svg viewBox="0 0 24 24" class="icon-door-exit" id="icon-door-exit" xmlns="http://www.w3.org/2000/svg"><path fill="var(--primary)" d="M11 4h3a1 1 0 011 1v3a1 1 0 01-2 0V6h-2v12h2v-2a1 1 0 012 0v3a1 1 0 01-1 1h-3v1a1 1 0 01-1.27.96l-6.98-2A1 1 0 012 19V5a1 1 0 01.75-.97l6.98-2A1 1 0 0111 3v1z"/><path class="secondary" d="M18.59 11l-1.3-1.3c-.94-.94.47-2.35 1.42-1.4l3 3a1 1 0 010 1.4l-3 3c-.95.95-2.36-.46-1.42-1.4l1.3-1.3H14a1 1 0 010-2h4.59z"/></svg><svg viewBox="0 0 24 24" class="icon-edit" id="icon-edit" xmlns="http://www.w3.org/2000/svg"><path fill="var(--primary)" d="M4 14a1 1 0 01.3-.7l11-11a1 1 0 011.4 0l3 3a1 1 0 010 1.4l-11 11a1 1 0 01-.7.3H5a1 1 0 01-1-1v-3z"/><rect width="20" height="2" x="2" y="20" class="secondary" rx="1"/></svg><svg viewBox="0 0 24 24" class="icon-identification" id="icon-identification" xmlns="http://www.w3.org/2000/svg"><path fill="var(--primary)" d="M4 4h16a2 2 0 012 2v12a2 2 0 01-2 2H4a2 2 0 01-2-2V6c0-1.1.9-2 2-2zm13 3a1 1 0 000 2h2a1 1 0 000-2h-2zm-2 4a1 1 0 000 2h4a1 1 0 000-2h-4zm1 4a1 1 0 000 2h3a1 1 0 000-2h-3z"/><path class="secondary" d="M8 12a3 3 0 110-6 3 3 0 010 6zm-2 2h4a2 2 0 012 2v1a1 1 0 01-1 1H5a1 1 0 01-1-1v-1c0-1.1.9-2 2-2z"/></svg><svg viewBox="0 0 24 24" class="icon-information" id="icon-information" xmlns="http://www.w3.org/2000/svg"><path fill="var(--primary)" d="M12 2a10 10 0 110 20 10 10 0 010-20z"/><path class="secondary" d="M11 12a1 1 0 010-2h2a1 1 0 01.96 1.27L12.33 17H13a1 1 0 010 2h-2a1 1 0 01-.96-1.27L11.67 12H11zm2-4a1.5 1.5 0 110-3 1.5 1.5 0 010 3z"/></svg><svg viewBox="0 0 24 24" class="icon-lock" id="icon-lock" xmlns="http://www.w3.org/2000/svg"><path class="secondary" d="M12 10v3a2 2 0 00-1 3.73V18a1 1 0 001 1v3H5a2 2 0 01-2-2v-8c0-1.1.9-2 2-2h7z"/><path fill="var(--primary)" d="M12 19a1 1 0 001-1v-1.27A2 2 0 0012 13v-3h3V7a3 3 0 00-6 0v3H7V7a5 5 0 1110 0v3h2a2 2 0 012 2v8a2 2 0 01-2 2h-7v-3z"/></svg><svg viewBox="0 0 24 24" class="icon-menu" id="icon-menu" xmlns="http://www.w3.org/2000/svg"><path class="secondary" fill-rule="evenodd" d="M4 5h16a1 1 0 010 2H4a1 1 0 110-2zm0 6h16a1 1 0 010 2H4a1 1 0 010-2zm0 6h16a1 1 0 010 2H4a1 1 0 010-2z"/></svg><svg viewBox="0 0 24 24" class="icon-mood-happy" id="icon-mood-happy" xmlns="http://www.w3.org/2000/svg"><circle cx="12" cy="12" r="10" fill="var(--primary)"/><path class="secondary" d="M6.8 14h10.4a1 1 0 01.86 1.5 7 7 0 01-12.12 0A1 1 0 016.8 14zm1.7-3a1.5 1.5 0 110-3 1.5 1.5 0 010 3zm7 0a1.5 1.5 0 110-3 1.5 1.5 0 010 3z"/></svg><svg viewBox="0 0 24 24" class="icon-mood-sad" id="icon-mood-sad" xmlns="http://www.w3.org/2000/svg"><circle cx="12" cy="12" r="10" fill="var(--primary)"/><path class="secondary" d="M16.47 18H7.53a1 1 0 01-.75-1.67 6.98 6.98 0 0110.44 0 1 1 0 01-.75 1.67zM8.5 11a1.5 1.5 0 110-3 1.5 1.5 0 010 3zm7 0a1.5 1.5 0 110-3 1.5 1.5 0 010 3z"/></svg><svg viewBox="0 0 24 24" class="icon-order-horizontal" id="icon-order-horizontal" xmlns="http://www.w3.org/2000/svg"><path class="secondary" d="M18.59 17H9a1 1 0 010-2h9.59l-2.3-2.3a1 1 0 011.42-1.4l4 4a1 1 0 010 1.4l-4 4a1 1 0 01-1.42-1.4l2.3-2.3z"/><path fill="var(--primary)" d="M5.41 7H15a1 1 0 010 2H5.41l2.3 2.3a1 1 0 01-1.42 1.4l-4-4a1 1 0 010-1.4l4-4a1 1 0 011.42 1.4L5.4 7z"/></svg><svg viewBox="0 0 24 24" class="icon-pause" id="icon-pause" xmlns="http://www.w3.org/2000/svg"><circle cx="12" cy="12" r="10" fill="var(--primary)"/><path class="secondary" d="M9 8h1a1 1 0 011 1v6a1 1 0 01-1 1H9a1 1 0 01-1-1V9a1 1 0 011-1zm5 0h1a1 1 0 011 1v6a1 1 0 01-1 1h-1a1 1 0 01-1-1V9a1 1 0 011-1z"/></svg><svg viewBox="0 0 24 24" class="icon-photo" id="icon-photo" xmlns="http://www.w3.org/2000/svg"><path fill="var(--primary)" d="M5 3h14a2 2 0 012 2v14a2 2 0 01-2 2H5a2 2 0 01-2-2V5c0-1.1.9-2 2-2zm9 6a2 2 0 100-4 2 2 0 000 4z"/><path class="secondary" d="M15.3 12.3a1 1 0 011.4 0l2 2a1 1 0 01.3.7v3a1 1 0 01-1 1H6a1 1 0 01-1-1v-3a1 1 0 01.3-.7l4-4a1 1 0 011.4 0l3.3 3.29 1.3-1.3z"/></svg><svg viewBox="0 0 24 24" class="icon-play" id="icon-play" xmlns="http://www.w3.org/2000/svg"><circle cx="12" cy="12" r="10" fill="var(--primary)"/><path class="secondary" d="M15.51 11.14a1 1 0 010 1.72l-5 3A1 1 0 019 15V9a1 1 0 011.51-.86l5 3z"/></svg><svg viewBox="0 0 24 24" class="icon-refresh" id="icon-refresh" xmlns="http://www.w3.org/2000/svg"><circle cx="12" cy="12" r="10" fill="var(--primary)"/><path class="secondary" d="M8.52 7.11a5.98 5.98 0 018.98 2.5 1 1 0 11-1.83.8 4 4 0 00-5.7-1.86l.74.74A1 1 0 0110 11H7a1 1 0 01-1-1V7a1 1 0 011.7-.7l.82.81zm5.51 8.34l-.74-.74A1 1 0 0114 13h3a1 1 0 011 1v3a1 1 0 01-1.7.7l-.82-.81A5.98 5.98 0 016.5 14.4a1 1 0 111.83-.8 4 4 0 005.7 1.85z"/></svg><svg viewBox="0 0 24 24" class="icon-time" id="icon-time" xmlns="http://www.w3.org/2000/svg"><circle cx="12" cy="12" r="10" fill="var(--primary)"/><path class="secondary" d="M13 11.59l3.2 3.2a1 1 0 01-1.4 1.42l-3.5-3.5A1 1 0 0111 12V7a1 1 0 012 0v4.59z"/></svg><svg viewBox="0 0 24 24" class="icon-trash" id="icon-trash" xmlns="http://www.w3.org/2000/svg"><path fill="var(--primary)" d="M5 5h14l-.89 15.12a2 2 0 01-2 1.88H7.9a2 2 0 01-2-1.88L5 5zm5 5a1 1 0 00-1 1v6a1 1 0 002 0v-6a1 1 0 00-1-1zm4 0a1 1 0 00-1 1v6a1 1 0 002 0v-6a1 1 0 00-1-1z"/><path class="secondary" d="M8.59 4l1.7-1.7A1 1 0 0111 2h2a1 1 0 01.7.3L15.42 4H19a1 1 0 010 2H5a1 1 0 110-2h3.59z"/></svg><svg viewBox="0 0 24 24" class="icon-user" id="icon-user" xmlns="http://www.w3.org/2000/svg"><path fill="var(--primary)" d="M12 12a5 5 0 110-10 5 5 0 010 10z"/><path class="secondary" d="M21 20v-1a5 5 0 00-5-5H8a5 5 0 00-5 5v1c0 1.1.9 2 2 2h14a2 2 0 002-2z"/></svg><svg viewBox="0 0 24 24" class="icon-user-add" id="icon-user-add" xmlns="http://www.w3.org/2000/svg"><path fill="var(--primary)" d="M9 11a4 4 0 110-8 4 4 0 010 8z"/><path class="secondary" d="M17 9V7a1 1 0 012 0v2h2a1 1 0 010 2h-2v2a1 1 0 01-2 0v-2h-2a1 1 0 010-2h2zm-1 10a2 2 0 01-2 2H4a2 2 0 01-2-2v-1a5 5 0 015-5h4a5 5 0 015 5v1z"/></svg><svg viewBox="0 0 24 24" class="icon-zoom-in" id="icon-zoom-in" xmlns="http://www.w3.org/2000/svg"><circle cx="10" cy="10" r="7" fill="var(--primary)"/><path class="secondary" d="M16.32 14.9l1.1 1.1c.4-.02.83.13 1.14.44l3 3a1.5 1.5 0 01-2.12 2.12l-3-3a1.5 1.5 0 01-.44-1.14l-1.1-1.1a8 8 0 111.41-1.41zM10 16a6 6 0 100-12 6 6 0 000 12zm1-7h2a1 1 0 010 2h-2v2a1 1 0 01-2 0v-2H7a1 1 0 010-2h2V7a1 1 0 112 0v2z"/></svg></svg>