<svg version="1.1" id="Layer_1" xmlns="http://www.w3.org/2000/svg" xmlns:xlink="http://www.w3.org/1999/xlink" x="0" y="0" viewBox="0 0 238.3 58.6" xml:space="preserve"><style>.st0{fill:#a5b3bb}</style><path class="st0" d="M67.1 0L28.9 56.6l60.5.1zM0 .2v.3l22.3 56.1L60.3.2z"/><path fill="#f1f5f8" d="M26.8 16.3l8.7-11-5.7-.1-6.8 8.6.1-8.6h-4.8L18.2 30l4.8.1V19l7.6 11.1h5.6zM71 37.4c-.9-1.3-2-2.2-3.3-2.6-1.3-.5-3-.7-5.1-.7h-1v-4.8h8.3v-4.6l-13-.1-.1 24.9h7c2.1 0 3.7-.3 4.8-.9 1.2-.6 2.1-1.5 2.8-2.5.7-1 1-2.4 1-4.1-.1-1.8-.5-3.4-1.4-4.6zm-4.2 6.8c-.6.6-1.9.8-4.1.8h-1.2v-6.7h1c3.4 0 5.2 1.2 5.2 3.6 0 .9-.3 1.7-.9 2.3z"/><path class="st0" d="M105.5.3h-3.3l-10 9.3V.3h-2.5l-.1 24.9h2.5l.1-11.6L103 25.1h3.3L93.5 11.4l12-11.1zm15.3.4c-1-.3-2.9-.4-5.7-.4h-5l-.1 24.9h2.5l.1-11.6h1.8c3.1 0 5.2-.1 6.3-.4 1.5-.4 2.8-1.1 3.6-2.2.9-1.1 1.3-2.4 1.3-4.1 0-1.6-.4-3-1.3-4.1-.9-1-2-1.7-3.5-2.1zm1.6 8.6c-.5.7-1.1 1.2-1.9 1.5-.8.3-2 .5-3.7.4l-4.2-.1V2.7h4.4c1.7 0 2.9.2 3.6.5.7.3 1.3.8 1.8 1.5.4.7.7 1.5.7 2.3 0 .9-.3 1.6-.7 2.3zM140.2.5l-11.9 24.8h2.8l3.9-8.2 10.7.1 3.9 8.2h2.7L140.8.5h-.6zm-4 14.2l4.3-9 4.2 9h-8.5zM163 3.9c1.7-.9 3.5-1.4 5.5-1.4 1.8 0 3.5.4 5 1.1 1.5.7 2.8 1.8 3.9 3.2l2-1.5c-1.2-1.7-2.7-3-4.6-3.9-1.9-.9-4-1.4-6.3-1.4-3.8 0-7 1.2-9.6 3.7-2.6 2.5-3.9 5.5-3.9 9.2 0 3.5 1 6.4 3.1 8.9 2.5 2.9 5.9 4.4 10.3 4.4 2.3 0 4.4-.4 6.2-1.3 1.9-.9 3.4-2.1 4.7-3.6l-2-1.5c-2.4 2.7-5.3 4.1-8.8 4-3.2 0-5.8-1-7.9-3.1s-3.1-4.6-3.1-7.6c0-2 .5-3.8 1.4-5.4 1.1-1.6 2.4-2.9 4.1-3.8zm31.7 8.1c-1.4-.6-3.6-.8-6.7-.9h-1.2v-8l10 .1V.8L184.3.7l-.1 24.9h6.8c2.5 0 4.5-.7 5.9-2.1 1.4-1.4 2.1-3.1 2.2-5 0-1.4-.4-2.8-1.2-3.9-.7-1.2-1.8-2.1-3.2-2.6zm1.1 9c-.5.7-1.2 1.3-2 1.6-.8.4-2.2.5-4 .5h-3.1v-9.5h1.4c2.1 0 3.7.1 4.7.4 1.1.3 1.9.8 2.6 1.6.7.8 1.1 1.8 1 2.9.2 1-.1 1.8-.6 2.5zm8.3 4.7l14.1.1v-2.4l-11.7-.1.1-9.8 11.7.1v-2.4l-11.7-.1V3.3l11.8.1V1L204.2.9l-.1 24.8zm32.8-22.2c-.9-1.1-2.1-1.8-3.5-2.2-1-.3-2.9-.4-5.7-.4h-5l-.1 24.9h2.5l.1-11.6h1.8c3.1 0 5.2-.1 6.3-.4 1.5-.4 2.8-1.1 3.6-2.2.9-1.1 1.3-2.4 1.3-4.1.1-1.5-.4-2.9-1.3-4zM235 9.9c-.5.7-1.1 1.2-1.9 1.5-.8.3-2 .5-3.7.4l-4.2-.1V3.3h4.4c1.7 0 2.9.2 3.6.5.7.3 1.3.8 1.8 1.5.4.7.7 1.5.7 2.3 0 .9-.2 1.6-.7 2.3zM106.1 47.7c-.5-.4-1.1-.7-2-1 .7-.4 1.2-.9 1.6-1.4.4-.6.5-1.3.5-2 0-.8-.2-1.5-.6-2.1-.4-.6-1-1.1-1.6-1.4-.7-.3-1.7-.5-3-.5h-3.2l-.1 16.4h4.5c1.6 0 2.9-.4 3.9-1.3s1.5-2 1.5-3.3c0-.6-.1-1.2-.4-1.8-.3-.7-.6-1.2-1.1-1.6zm-6.7-6.9h1.9c1.1 0 2 .2 2.5.7.5.4.8 1 .8 1.8 0 .6-.2 1.1-.5 1.5-.3.5-.7.8-1.3 1s-1.4.3-2.5.3h-.9v-5.3zm5.9 11.8c-.3.5-.8.9-1.4 1.1-.6.2-1.4.3-2.6.3h-2v-6.3h.9c1.4 0 2.4.1 2.9.2.8.2 1.5.6 2 1.1.5.5.7 1.2.7 1.9.1.6-.1 1.2-.5 1.7zm5.5 3.1h9.3v-1.6h-7.7v-6.4h7.7v-1.6h-7.7V41h7.8v-1.6h-9.4v16.3zm19.1-9c-.9-.4-2.4-.6-4.5-.6h-.8v-5.3h6.6v-1.6H123v16.5h4.5c1.7 0 3-.5 3.9-1.4.9-.9 1.4-2 1.4-3.3 0-1-.3-1.8-.8-2.6-.4-.7-1.2-1.3-2.1-1.7zm.7 6c-.3.5-.8.8-1.3 1.1-.6.2-1.4.3-2.6.3h-2v-6.3h.9c1.4 0 2.4.1 3.1.3.7.2 1.3.5 1.7 1.1s.7 1.2.7 1.9c0 .6-.1 1.1-.5 1.6zm4.3-2.4h6.1v-1.4h-6.1v1.4zm13.4-8.7c1.1-.6 2.3-.9 3.6-.9 1.2 0 2.3.3 3.3.7 1 .5 1.9 1.2 2.6 2.1l1.3-1c-.8-1.1-1.8-2-3-2.6-1.2-.6-2.6-.9-4.1-.9-2.5 0-4.7.8-6.3 2.4-1.7 1.6-2.5 3.6-2.6 6.1 0 2.3.7 4.2 2.1 5.9 1.6 1.9 3.9 2.9 6.8 2.9 1.5 0 2.9-.3 4.1-.8 1.2-.6 2.3-1.4 3.1-2.4l-1.3-1c-1.6 1.8-3.5 2.7-5.8 2.7-2.1 0-3.8-.7-5.2-2-1.4-1.3-2-3-2-5 0-1.3.3-2.5.9-3.6.5-1.2 1.3-2 2.5-2.6zm12.4-.5h3.7l-.1 14.8h1.7l.1-14.8h3.7v-1.6h-9l-.1 1.6zm16.9 9.7l-4.9-11.2h-1.9l5.9 13.2c-.4.9-.7 1.5-1.1 1.7-.3.2-.7.3-1.1.3-.3 0-.6-.1-.8-.2-.3-.1-.8-.6-1.6-1.4l-1.2 1c.8.9 1.5 1.5 2 1.7.5.2 1.1.4 1.7.4 1.5 0 2.5-.7 3.1-2.1l6.3-14.7h-1.8l-4.6 11.3zm15.9-11.1h-.6l-6.5 14.8h-1.3v4h1.6V56l13.2.1v2.5h1.6v-4h-1.3l-6.7-14.9zm-5.2 14.8l4.9-11.5 5.1 11.5h-10zm17.2-2l.1-12.8H204l-.1 16.4h.4l10.9-12.5-.2 12.6h1.7l.1-16.4h-.4l-10.9 12.7zm21.4-12.7c-1.8 0-3.1.1-3.7.2-1 .2-1.8.7-2.4 1.4-.6.7-.9 1.6-.9 2.7 0 .9.2 1.7.6 2.4.4.7 1 1.2 1.8 1.5.8.4 1.9.5 3.2.5l-5.9 7.6h2l5.9-7.6h.9v7.6h1.6l.1-16.4-3.2.1zm1.6 7.2h-2.8c-1.1 0-1.9-.1-2.4-.3-.5-.2-.9-.5-1.2-1-.3-.5-.4-1-.4-1.5 0-.6.2-1 .5-1.5.3-.4.7-.8 1.2-1 .5-.2 1.3-.3 2.4-.3h2.9l-.2 5.6z"/></svg>