<svg version="1.1" id="Слой_1" xmlns="http://www.w3.org/2000/svg" xmlns:xlink="http://www.w3.org/1999/xlink" x="0" y="0" viewBox="0 0 500 344" xml:space="preserve"><style>.st0{fill:#adadad}.st1{fill:#ededee}</style><path class="st0" d="M2.4 162c.2-14.6.4-29.1.7-43.7.2-9.2 1-18.3 2.5-27.4 4.3-25.7 19.1-42.8 43-52.4 9.8-3.9 19.9-6.8 30.2-8.6 3.3-.6 5.9-1.8 8.3-4.2 5.7-5.7 11.7-11 18.1-15.8 14.6-11.1 30.1-13.3 46.5-4.4 1.8 1 3.2.7 4.9 0 22.5-9 40.2-4.4 55.1 14.3 1.3 1.7 2.7 2.3 4.8 2.3 23.7-.5 47.5-.9 71.3-1.4 29.2-.6 57.6 2.3 84.2 15.7 10.1 5.1 19.3 11.4 27.4 19.4 2 2 4.1 2.8 6.9 2.8 10.6-.1 21.3-.1 31.9 0 2.5 0 4.3-.6 6-2.6 3.9-4.6 8.7-8.1 14-11 4.6-2.6 9.6-3.4 14.8-2.8 6.9.8 10.8 4.7 11.4 11.5.2 1.8.8 2.5 2.4 3 2.5.7 4.9 1.8 7.1 3.3 6.5 4.6 6.5 11.6-.2 16.1-1.4 1-3 1.7-4.7 2.4-1.6.6-2 1.5-1.8 3.3.6 5.7-2.2 9.7-7.6 11.8-5.3 2-10.6 1.9-15.9 0-7.3-2.7-14.1-6.4-19.5-12.1-1.8-1.9-3.6-2.6-6.1-2.6-6.6.1-13.3 0-20.2 0 15.8 33.2 22.3 66.6 8.7 101.7 0 20.7-.1 41.3-.1 62v56.8c0 5.4-.7 10.7-2.8 15.8-1 1.8-.4 3.9-1.5 5.6-7.7 11.8-20.1 14.9-32.7 17.5-1.7.4-3.3 1-5 1.3-.5.1-1 .1-1.5.1-3-.7-5.8.8-8.7.5h-18.7c-1.9 0-3.8-.1-5.5-.8-6.2-.7-12-3.1-18-4.5-4.2-2.3-9.3-3.1-12.7-6.9-3.9-3.1-8.8-2.6-13.3-3.5-8.8-1.8-17-5.1-23.8-11.1-7.3-6.5-10.5-14.9-10.7-24.4-.3-11.1 0-22.1-.1-33.2 0-4.8-5.4-8.3-10-6.4-1.9.8-1.8 2.4-1.9 4-.1 7 0 14-.1 21-.1 8.7.5 17.5-.6 26.2-.3 2.2.3 4.3.6 6.5.1 1 0 2-.3 2.9-1 2.1-1 4.5-1.8 6.6-.7 2.4-1.8 4.6-3.2 6.6-3.1 3.4-5.5 7.3-9.7 9.8-6 3.5-12.6 5.3-18.8 7.9-10.9 2.2-22 2.4-33 1.5-10.6-.9-21.5-.7-31.6-5-1.3-.6-2.7-1-4-1.8-2.6-3.1-7-3.7-9.4-7-1.4-3-4.2-3.8-7.1-4.4-11.2-2.1-21.6-6-29.4-14.7-4.5-5-7.3-10.8-7.7-17.6.6-3.2.4-6.4.5-9.6 1-26.6-2.2-53.1-1.6-79.7.1-4.2-1.2-5.3-5.2-4.9-9.7.9-16.9 5.1-20.9 14.6-3.4 8.3-3.8 17-4.8 25.6-.3 2.3-.9 4.5-.9 6.9-.1 6-.6 11.9-2 17.7-.3 1.3.1 2.6.3 3.9-.1 1.9-.2 3.7-.7 5.5.4 6-2.6 11.5-3 17.4-.5 6.1-1.2 12.1-1.5 18.2-.2 3.4-1.1 6.5-2.1 9.7.1 3.5-2 5.7-4.6 7.5-3.7 2.4-7.2 5.2-11.8 5.4-8.4.9-16.7 1.3-25.1-.1-2.5-.4-4.5-1.9-6.9-2.5-1.1-1-2-2.1-3.2-2.9-7.5-4.7-9.5-12.1-9.6-20.3-.2-16.3-.1-32.5 0-48.8"/><path class="st1" d="M147.7 193.5c-3.7-3.5-5.6-3.4-7.9 1-.6 1.2-1 1.5-2.2 1.1-7.4-2.7-14.9-4.8-23-6.6 14.9-12.5 19.7-28.9 21-46.9.2-2.8.8-4.8 3.7-6.1 3.5-1.6 5.8-4.8 7.5-8.3.7-1.5.7-2.9-.8-3.8-1.7-1-3.1-.4-4 1.3l-.9 1.5c-4.7 7.5-12.3 8.5-18.8 2.5-1.6-1.5-3.3-3.6-5.4-1.1-1.9 2.2.5 3.7 1.8 5.1 2.5 2.6 5.6 4.2 9.1 4.9 1.8.3 2.5 1.1 2.3 2.9-1 15-4.3 29.1-15.3 40.4-4 4.1-8.9 6.2-14.9 6.2-18.6-.1-30 8.7-35.1 26.6-3.5 12.2-3.5 24.8-4.7 37.2-1.8 18.6-3.1 37.2-4.5 55.7-.5 6.1-3.7 10.1-9.2 12.1-8.5 3.1-17.2 3.1-25.7.2-6.8-2.3-9.7-6.7-9.7-13.9 0-17.5.1-35 .1-52.4 2.6.4 2.4 2.5 2.6 4.3.2 3.8 0 7.6.3 11.4 0-6.5 1-13 1-19.5 0-10.2.9-20.3 1.4-30.5.1-1-.1-2-.3-3 .2-12.1.5-24.1 1.3-36.2.4-6.4.5-12.8.2-19.1 0-15.5-.2-31 2-46.4 1.4-5.6 2-11.4 4-16.9C31.3 77.1 46 64.7 65.5 57.1c9.3-3.6 18.7-6.3 28.5-7.9 3.8-.7 7.4-1.5 10.4 2.2 1.4 1.8 3.5.8 5.2-.3 6.9-4.3 13.5-9.2 20.3-13.6 13.2-8.6 26.2-17.4 42-20.9 9-2 17.7-2.8 26.4 1.1 2.8.6 4.1 3.1 5.6 5.1 6.2 7.8 9.9 16.8 12.2 26.4 5.3 22.5 7.6 45.1 2.6 67.9-4.1 18.8-15.3 28.9-34.2 32-5.5.9-10.8 2.3-15.3 6-5.2 4.3-7.6 9.9-7.2 16.5.1 2.5 1.2 4.6 4.2 4.6 3.2-.1 4.1-2.1 4.1-5 .2-8.1 3.8-12 12.4-13.5.8.5 1.4 1.3 1.3 2.2-.9 6.7-1 13.6-4.4 19.8-3.2.7-3.7 3.8-5.2 6-4.6 7.1-10.2 13.4-16.1 19.4-3.3 3.3-5.4 7.2-6.3 11.7-.3 1.4-.8 2.8-2.1 3.7-1.3.9-1.8.3-1.8-1.1-.3-8.7.3-17.3-.4-25.9z"/><path class="st0" d="M300.6 156.8c2.4-5.5 2.3-11.6 3.7-17.4 1-4.2 1.6-8.6 2.5-12.8.5-2.2.1-3.4-2.5-3.2-2.2.2-4.3 1.4-6.6 1.3-1.6 0-2.6 1-3 2.7-.4 1.8-1 3.6-1.1 5.5-.4 4.5-2.4 8.5-4.3 12.5-1.2 5.3-2.4 10.6-3.5 16-1 4.7-4.1 7.9-8.8 8.2-4.1.3-8.1.2-12.2 0-4.3-.2-6.8-2.7-7.9-6.7-1-.9-1.4-2.2-1.7-3.8-9.3 9.8-21.1 12.4-33.8 12.6h-3.1c-5.9 0-7.2-.3-8 6.3-.3 2.7-.9 5.5-2.2 8-2.3 4.5-5.7 7.3-11 7.1-1.5-.1-2.9.5-4.3.7-5.7.1-11.2-.4-15-5.6-2.5-3.4-2.4-5.7.6-8.4 2-7.3 3.1-14.7 4.3-22.1 1-.3 2-.5 2.9-.8 3.2-1.1 3.3.4 2.7 3-1.5 6.8-2.6 13.7-4.1 20.6-.8 3.7 0 5.5 4.2 5.4 14.3-.2 12.2 1.5 15-12 2-9.7 1.9-9.6 11.6-9.7 5.7 0 11.4.2 17-.9 18.4-3.5 31-20.8 28.6-39.5-1.4-10.7-8.5-17.2-20.5-18.5-2.9-.3-5.8-.7-8.7-.8-2.5 0-2.5-1.3-2.2-3.1.2-2.9 2-4.2 4.8-4.2 1.4 0 2.8-.1 4.2 0 2.2 1 4.6.8 6.8 1.2 8 1.6 14.7 5.4 19.4 13.1 2.2-7.9 3.1-15.5 4.7-23 2.2-10.2 5.6-13.2 16.1-13.2 3.2 0 6.4-.3 9.6.6 5.9 1.9 8.7 6.4 7.5 12.7-1.8 9.1-2.3 8.5 7.4 8.5 1 0 2-.1 3 0 3.4 1.5 7.2.7 10.6 1.8 6.1 2 10.9 5.3 13.4 11.3.3-6.9 3.1-10.8 9-12.6.5 0 1-.1 1.5-.1h28.6c1.7 0 3.5.1 5.1-.5 10.6.7 20.7 2.2 27.4 11.9 5.8 6.9 6.9 15 5.7 23.6-.7 4.6-1.6 9.1-3.6 13.4-4.8 10.2-12.4 17.3-22.4 22.2-6.8 2.5-13.8 3.5-21 3.2-9.5.9-9.5.9-11.4 10.1-1.7 8.3-5.9 11.9-14.5 12-3.7.1-7.5.5-11.2-.6-6.6-2-9.1-6.7-7.2-13.3 1.5-7.9 1.5-7.9-6.3-7.9-2.5 0-4.9 0-7.4-.1-3.4-.2-6.1-1.7-8.4-4.1-3.1-3.4-2.1-7 0-10.6z"/><path class="st1" d="M243.5 106.6c-4.8-1.1-9.6-1.5-14.4-1.6.1 1.3 0 2.6-.1 3.8 0 .5-.2.9-.2 1.4-.1 1.4-.4 2.8-.8 4.1 0 .3-.1.5-.1.8.1 2.1-.1 4.1-.8 6.2-.3 1.6-1 3-1.6 4.4-.6 1.4-1 2.5-1.7 3.7-.8 1.8-1.7 3.5-2.8 5.2-2 3.3-4 6.4-6.5 9.1l-.2.2c-2.5 2.7-5.4 4.9-9.1 6.2-.1.1-.3.1-.4.2-5.2 2.5-10.5 4.8-16 6.6-1.6 8-3.1 16-4.7 24-.3 1.7-1.1 3.4.7 4.8 1.5 1.2 13.9.7 15.3-.5 1-.9 1.4-2.1 1.6-3.5.7-3.9 1.7-7.7 2.2-11.6.6-4.2 2.8-5.6 6.8-5.5 5.4.1 10.8.1 16.2-.2 19.5-1.1 34.1-16.9 33.8-36.4-.2-11.7-5.9-18.8-17.2-21.4zm83.1 201.9c.8-11 3.6-21.5 8.8-31.2.7-1.3 1.6-2.5 2.5-3.6 3.7-4.3 6.8-4.3 10.5-.1 2.8 3.2 4.4 7.1 6.1 11 .8 1.9-.5 2.5-1.4 3.6-7.4 9-10 19.5-9.4 30.9.1 2.8 1.3 5.4 3.1 7.6 1.8 2.3.7 3-1.6 3.2-5.9.7-10.5-1.7-14-6.3-3.4-4.4-4.8-9.5-4.6-15.1zm-168.7 2.7c1-11.1 3.6-21.8 9.1-31.6.8-1.5 2-2.9 3.2-4.1 3.1-3.1 5.6-3.1 8.7-.1 3.4 3.3 5.2 7.6 7 12 .7 1.8-.5 2.5-1.4 3.7-7.3 8.8-9.9 19.2-9.4 30.5.1 2.8 1.2 5.5 2.9 7.6 2.2 2.8.7 3.3-1.8 3.5-6.1.5-10.7-2.2-14.1-7.1-3-4.2-4.3-9.1-4.2-14.4z"/><path class="st1" d="M200.6 318c0 .7.1 1.5 0 2.2-.8 7.4-5.5 12.7-11.5 12.7-5.9 0-11.2-5.2-11.5-12.6-.4-9.4 2.2-18.2 7.6-26 2.6-3.8 5.4-3.6 8.2.6 4.7 6.9 6.5 14.8 7.2 23.1zm161.3-25.7c5.5 8 7.8 16.8 7.1 26.4-.5 6.5-5.7 11.3-11.2 11.4-5.5 0-10.7-4.7-11.3-11.3-.9-10 1.9-19.3 7.6-27.6 2.3-3.4 4.2-3.2 7.2.2m-54.6 5.2c-.1 3.3-.6 6.2-2.1 8.7-3.5 6-9.8 6.1-13.6.3-1.6-2.5-2.4-5.3-2.3-8.3.3-7.2 1.9-14.1 5.3-20.4 2.5-4.6 4.9-4.6 7.3 0 3.4 6.3 4.9 13.1 5.4 19.7zM11.9 109.4v9c2.3-.8 2.1-2.7 2.8-3.8 1.9-2.8 3.8-4.7 6.9-1.4-1.6 15.7-2.1 31.4-1.9 47.2-.9 1.9-1.8 3.8-3.4 5.4-2 2-2.5 4.8-2.5 7.6 0 2.3.2 4.6-.4 6.9-.5 1.9-1.1 2-2.8 1.1v-53c0-1.3-.2-2.6.3-3.9.3-5.2-.3-10.2 1-15.1zm121 167.2c3.7 6.5 5.3 13.5 5.1 20.9-.2 6.3-4.4 11.3-8.9 11.3-4.6 0-8.5-5.1-8.8-11.4-.2-5.1.5-10.2 2.7-14.9 1.8-.5 2.1-2.3 2.9-3.6 1.6-3 3.8-4.2 7-2.3z"/><path class="st1" d="M116.8 258.2c2.9-3.9 4.5-4 7.2-.3.9 1.3 1.7 2.7 2.4 4.2 1.7 3.6 2.8 6-1.1 10.1-6.8 7.2-7.9 17.2-7.5 27 .1 1.1.8 2.2-.1 3.6-5.6-2.4-8-7.1-8.6-12.6-1-9.6 1-18.8 5.3-27.5 1.8 1.3 1.6 2.9.9 4.6-.8 2.1-1.5 4.4-2.1 6.6 1.2-5.2 2.8-10.2 7.1-13.6-1-1.8-2.8-.8-3.5-2.1zm169.6-.1c2.1-2.9 4-1.6 5.7.3 2.3 2.8 3.6 6.3 4.8 9.7.4 1.2.4 2.2-.9 3-3.8 2.2-5.4 6-6.7 9.9-2.2 6.6-4.3 13.3-2.8 20.5.1.7.5 1.6-.4 1.9-.6.2-1.4-.1-2-.5-4.6-3.1-6.5-7.9-6.7-13.1-.4-8.5 1.3-16.7 5-24.5 2.1.7 1.8 2.2 1.4 3.9-.4 1.7-1.5 3.2-1.5 4.6 1.3-3.6 2-8 5.4-11.1 2.6-2.4-1.3-3-1.3-4.6z"/><path class="st0" d="M226 121.8c.1-4.4 2.6-5 6.4-4.3 7.4 1.4 10.3 4.8 9.8 12.3-.3 3.9-1.2 7.7-2.9 11.3-2 4.1-5 7.1-9.5 8.2-5.8 1.5-11.7 2-17.7 1.9-1.5 0-3-.3-3.5-2s1.2-2.1 2.1-3c1.4-1.3 2.8-2.5 4.3-3.7 4 1.4 8 .7 11.9-.3 4.7-1.2 9.2-9.8 7.8-14.4-.7-2.2-2.6-2.5-4.4-3.1-1.8-.5-4.1-.3-4.3-2.9z"/><path class="st1" d="M159 290.6c-.9 3.7-1.8 7.3-2.6 11-1.7 8-1.9 15.9 2.1 23.5-6.8.4-13.5-6.5-13.4-14.2.1-6.3 1.8-12.3 5-17.8 2.7 2.2.5 4.1-.3 5.9 1.2-1.4 1.5-3.6 2.9-5.2 1.6-2.1 3-4.6 6.3-3.2zm168.6-2.6c-1.6 6.8-3.6 13.5-3.8 20.5-.1 4.8 1.1 9.4 3.1 13.9-6.6.1-12.7-6-13.2-13.1-.3-4.4.4-8.7 2.4-12.6.4-1.1 1.7 1.6 2.2-.7.6-2.9 2.8-5 4.9-7 1.2-1.1 2.6-2 4.4-1z"/><path class="st1" d="M327.6 288c-5.4 2.8-7.6 8.1-10.4 13.1-1.6-1.4.8-3.3-.9-4.4.9-4.2 2.8-7.9 5.3-11.3 1.3-1.5 2.5-3.1 4.4-3.9 1.6-.7 3.3-1.3 3.7 1.4-.8 1.6-1.5 3.3-2.1 5.1zm-41.2-29.9c1.3.2 2.7-.1 3.8.8 1.5 1.3 3.8 2.5.1 4.2-4.1 2-5.2 6.4-7 10.2-.7 1.5-1.1 3.2-2 4.8-1.2-4.4 2.5-8.4 1.1-12.8.6-2.8 1.9-5.2 4-7.2zm-169.6.1c1.6-.6 3.2-2.7 5-.6 1.2 1.4 3.2 2.6-.2 4.5-4.5 2.5-6.1 7.6-7.8 12.2-.5 1.3-.1 3-1.9 4 .9-5.4 1.7-10.5 2.5-15.6.4-1.7 1.2-3.2 2.4-4.5z"/><path class="st1" d="M329.6 282.8c-3.8-2.6-5.4 1.5-8.1 2.5.9-2.5 2.8-4.2 5.1-5.5 1.2-.7 2.9-1.5 3.9-.4.9 1-.3 2.3-.9 3.4zm-168.9 3.5c-2-4-4.3.7-6.4-.2.4-1.3 1.4-2.1 2.5-2.9 1.5-1.1 3.5-2.5 5-1.1 1.1 1.1-.4 2.9-1.1 4.2zm37.6 45.4c3.4 1.8 7.1.4 10.6.9-3.3 1.4-6.8.6-10.2.8-1.8.1-1.5-.8-.4-1.7z"/><path class="st0" d="M72.6 102.4h1.9c8.2-1.6 14.7 1.1 17.3 7.3 2.6 6.3-.4 13.9-7.2 18.3-8.5 5.5-18.4 3.9-23-3.7-7.3-12.1-5.9-21.3 4.3-27.1 5-2.8 10.3-4.7 16-5.5 1-.1 2.2-.5 2.6.7.3.9-.6 1.6-1.2 2.2-2.8 3.1-6.7 4.9-10.7 7.8z"/><path class="st1" d="M18.1 216.2c-3.5 2.6-3.6 2.7-6.8 9.9v-44.2c1.2-1.7.9-3.7.7-5.4-.8-7.1 1.4-12.7 7.9-16.2.2 15.5-.6 30.9-1.6 46.4-.3 3.1-.2 6.3-.2 9.5z"/><path class="st0" d="M85.7 74.7c-3.2-.8-6.9-1.5-10.7-1.3-10 .6-18.8 3.7-25.5 11.5-2.2 2.5-4.6 3.3-7.2 1.1-2.6-2.2-1.5-4.6.4-6.9 3.4-4 7.7-6.7 12.6-8.3 10.6-3.5 21.2-3.3 31.7-.1 1.2.4 2.9.8 2.4 2.5-.4 1.4-1.9 1.5-3.7 1.5z"/><path class="st1" d="M289.3 145.4c1.2-6.6 2.5-13.1 3.6-19.7.3-1.9 1.2-2.8 3.2-2.7 2.7.2 5.5-.4 8.2.4.4 3.4-1.2 6.1-3 8.9-3.3 5-7.5 9.2-12 13.1zm75.3-41c8.4 0 16.9-.4 25.2 1.6 11.3 2.7 17 9.8 17.2 21.4.3 19.5-14.3 35.3-33.8 36.4-5.4.3-10.8.3-16.2.2-4-.1-6.3 1.3-6.8 5.5-.5 3.9-1.5 7.7-2.2 11.6-.2 1.3-.6 2.5-1.6 3.5-1.4 1.3-13.8 1.7-15.3.5-1.8-1.4-1-3.2-.7-4.8 3.3-17.1 6.7-34.3 10-51.4 1.3-6.6 2.7-13.1 3.8-19.7.6-3.6 2.5-4.9 6-4.8 4.8.1 9.6 0 14.4 0z"/><path class="st1" d="M299.1 117.5c-11.5-.1-10.1-.5-12.4 10.4-2.1 10.3-4.2 20.5-6 30.9-.7 3.9-2.5 5.6-6.5 5.3-2.2-.1-4.4 0-6.6 0-5.1 0-5.6-.7-4.7-5.7l12.6-64.8c2.3-11.9 1.1-10.9 13.3-10.9 6 0 6.5.6 5.3 6.7-.6 3.1-1.2 6.3-1.8 9.4-.9 4.7-.3 5.5 4.4 5.5 6.4 0 12.8 0 19.2.8 11.9 1.4 17.1 7.8 15.1 19.7-2 11.6-4.5 23.1-6.7 34.7-.6 3.4-2.5 4.6-5.8 4.5-2.6-.1-5.3-.1-7.9 0-4.1.2-5-1.5-4.2-5.4 2-9.4 3.8-18.8 5.5-28.3 2-11.2.6-12.9-10.8-12.9-.5.1-1.3.1-2 .1zm47.1-18.6c3.7-1.6 7.6-.2 11.4-.9 6.5 0 12.9 0 19.4.1 1.7 0 3.5-.3 5 .8h-35.8z"/><path class="st0" d="M88.2 110.5c.9 1.7 1.5 3.4 1.1 5.4-1.5-.6-1.3-2.2-2.1-3.2-1.4-1.9-3.1-3.5-5.4-4.1-3.3-.9-6.5-.2-7.8 2.9-1.5 3.4 3.4 2 4 4.5-.4 2-4.9 1.7-3.6 4.6 1.5 3.4 4.8 4.8 8.8 4.8-.8 1.8-2.3 2-3.5 2.5-2.5.6-5.1 1.2-7.7.6-8.1-2.1-10.9-11.1-5.5-17.8 5.8-7.3 15.9-7.4 21.7-.2z"/><path class="st1" d="M88.2 110.5c-7.8-7.2-18.9-5.1-22.4 4.2-2.5 6.7 1.5 12.9 8.6 13.3 1.7.1 3.5 0 5.2-.1-6.1 2.7-12.6 1.3-15.8-3.5-3.1-4.7-1.9-11.1 3-15.7 7.1-6.6 17.5-5.7 21.4 1.8z"/><path class="st1" d="M86.6 116.3c-.1 1 0 2.3-1.4 2.1-1.9-.2-2.4-1.8-2.5-3.5-.1-1.1.3-2.3 1.4-2.2 1.9.3 2.4 2 2.5 3.6z"/><path class="st0" d="M362.4 151.3h-4.2c-2.8 0-4-1.4-3.5-4.2l5.1-26.1c.4-2 1.6-3.6 3.8-3.6 5.8-.1 11.7-.7 17.4.8 5.1 1.4 7.2 4.1 7.4 9.4.1 3.5-.5 6.9-1.6 10.3-2.1 6.7-6.2 11-13.4 12.2-3.9.5-7.8 1-11 1.2z"/><path class="st1" d="M425.6 148c.2 11.9-3.1 23-8.3 33.6-.8 1.5-3.7 3.8.8 4.8.4.1.5 1.8.5 2.8 0 37.1.1 74.3 0 111.4 0 10.9-5.4 18.7-15.2 23.5-11.7 5.7-24.3 6-37.7 6.8 3.3-4.8 6.3-8.8 6.3-14-.1-10.1-1.8-20.4-8.9-27.5-4.6-4.6-7.4-9.7-10.7-14.8-5.3-8.5-11-9.2-17.1-1.4-2.1 2.7-4.2 3.8-7.3 3.1.6-3.3 1.5-6.5 3.7-9.1 6.8-7.8 12.3-16.6 18.8-24.6 6.6-8.1 12.7-16.6 18.7-25.2 10.9-15.7 24.5-29.2 35.6-44.6 2.8-3.9 5.9-7.6 8.3-11.7 3-5.1 8.2-8.1 11.5-12.9 0-.4.6-.3 1-.2zM197.5 295.8c-2.2-2.8-4.2-5.8-7.9-7.2-1.4-.5-1.9-3.3-2.7-5.2-2.2-5.4-5.4-10-10.6-12.8-.9-2.9-.4-5.5 1.5-7.8 10.1-12.2 19-25.3 28.6-37.9 4.4-5.8 10.5-9.9 14.8-15.9 8.1-11.1 16.1-22.4 24.7-33.2 2.9-3.6 6-7.1 7.7-11.5.6-1.7 1.9-2.6 3.8-1.8 5 7.1 12.4 5.9 19.4 5 3.9-.5 8.1-1.5 8.8-5.7.9-5.1 2.4-11.3 3.5-16.5 2.6-4.2 5.8-6.4 8.1-11 1.7-3.3 4.8-5.8 5.2-9.8.4-1.4-.7-1.3.6-1.4 2.6.3 4 1.1 3.7 3.3-1.2 10-2.2 13.8-4.7 23.6-1.6 3-2.3 15.7-5.6 20.1-12.9 17.4-29.4 34.7-42.3 52.1-1.4 1.9-2.2 4-2.7 6.2-.6.6-1.1 1.2-1.7 1.8-6.8.6-9.9 6.2-13.2 10.9-6.4 9.1-13.3 17.9-19.7 27-4.7 6.7-10.3 12.5-15 19.1-1.1 1.6-1.8 3.3-2.1 5.2.1 1.5.2 3.4-2.2 3.4z"/><path class="st1" d="M193 191.7c3-.3 6.1.1 9-1.4 3.9-2.1 5.1-5.7 5.9-9.7 2-10.7 2-10.8 13-10.8 13.9 0 26.2-3.5 35.5-14.5.2-.3.7-.4 1.5-.8-.4 3-.7 5.7-1 8.4-2.6.9-1.7 3.7-2.9 5.5-3.8 5.7-8.3 10.8-12.4 16.3-7.3 9.8-14.7 19.4-21.8 29.3-3.2 4.5-8.1 6.9-11.3 11.4-8.3 11.5-16.9 22.9-25.6 34.1-2.7 3.4-5.2 6.8-6.4 11-4.3-.4-7.3 1.7-9.6 5-1.7 2.4-3.4 3.8-6.6 3.7-3.8-.1-6.3 2.8-8.5 5.5-1.1 1.3-2 2.8-4 4.1v-95.3c1.6 3.3.7 6.8.8 10.2.2 5.6.1 11.2.1 16.8 1.5 1 1.7 2.6 1.7 4.3 0 12.6.6 25.3-1.4 37.9l-.1.4h.4c-.9-8.4 2.6-15 7.9-21.4 6.9-8.1 12.6-17 19.2-25.4 2.7-3.4 5.3-6.9 8.9-9.5 3.4-2.4 5.1-6.3 8-9.1 2.2-2.1-1.3-3.9-.3-6zm107.6-34.9c-.9 2.2-1.5 3.8-.4 6.2 2.2 4.6 4.8 6.8 10 6.7 5.4-.1 11 1.3 16.7-2.4-.6 4.7-1.2 8.7-2.5 12.6-.8.2-1.1.8-1.5 1.5-7.2 14.8-18 27.1-27.9 40-3.7 4.9-7.3 9.8-10.5 15-.9 1.4-1.9 2.5-3.2 3.5-6.6.3-13.1.1-19.6-.9-2.7-.4-4-1.4-4-4.5 0-5.3-.6-5.8-6.2-5.9-2.1-1.5-2.6-2.6-.7-5.1 6.6-8.3 13.2-16.6 19.1-25.4 4.5-6.6 9.8-12.6 14.5-19 4.8-6.5 10-12.8 13.9-19.9.8-1 1.6-1.7 2.3-2.4zm87.5 9.7c13.3-7.4 21.7-18.2 24.2-33.5 2.5-.7 5.3-.5 7.6-2.2 1.5-1.1 3.3.1 5 .5 1.5 5.5.6 11.2.7 16.7-1 .6-1.1 1.5-1 2.6.3 1.7.4 3.3-2.2 3-1.5-.1-2.4 1.1-3.1 2.1-3.8 5.5-8.5 10.3-11.7 16.2-1.9 3.4-4.8 6.2-7.2 9.3-7.3 9.5-15.4 18.4-23 27.8-4.3 5.3-8 11-12.1 16.4-8.2 10.9-16.6 21.6-24.6 32.6-2.9 4-5.5 8.2-9 11.7-.7.7-1.3 2-1.1 2.7.8 2.7-1.1 3.1-2.8 3.9-5.1 1.5-7.8 5.7-11.3 9.7v-38.3c2.5.2 2.3 2.2 2.5 3.8.3 2.7-.1 5.5.2 8.3 7.9-7.1 12.7-16.5 19.1-24.6 12.8-16 25.8-31.8 38-48.3 3.8-5.1 7.2-10.6 11.1-15.6 1.5-1.6.7-3.2.7-4.8zM197.5 295.8c.7-9.1 6.9-14.9 12.7-20.9 2.8-3 4.4-6.7 7-9.9 6.3-7.9 12.4-16.1 17.8-24.6 2.3-3.6 5.5-6.7 8.4-9.9 2-2.2 4.3-2 6.5-.1 0 1.5-.1 2.9-.1 4.4-.7 11.6-.3 23.2-.2 34.8 0 4.8-1.4 8.5-4.7 12.1-6.5 7-11.9 15-17.4 22.9-4.7 6.6-9.9 12.9-14.9 19.3-2.3 2.9-2.6 6-3.7 9-3.1.8-6.2.2-9.3.3-.8 0-1.3-.4-1.2-1.3 5.8-6.5 5.7-14.1 4-22-1.2-5-3-9.6-4.9-14.1z"/><path class="st1" d="M281.4 239.8c1.7-7.5 7.3-12.8 11.6-18.8 5.8-8 12.1-15.6 17.8-23.7 4.1-5.9 8.2-11.9 12-18 .8-1.3 1.3-.5 1.6.4-2 5.3 1 10.8 6.6 11.3 4.6.5 9.4.6 13.9 0 4.3-.6 7.7-2.8 8.3-7.9.4-3.5 1.5-6.8 2-10.3.3-2.6 1.5-3.5 4-3.3 2.6.2 5.2.2 7.9.2 3.4 2.9 2.6 6.1.2 8.9-6.5 7.6-11.8 16.2-17.9 24.1-5.4 6.8-10.7 13.8-16.1 20.6-4.1 5.2-9.7 9.3-12.1 15.8-.4 1.1-1.5 1.9-2.8 1.6-1.4-.3-1.5-1.7-1.6-2.8-.3-1.7.3-3.5-.4-5.2-.7-2.4-2.2-3.9-4.8-3.4-2.6.5-3.4 2.4-3.3 4.9 0 1.9-.3 3.5-2.7 3.6-8 .8-16 2.3-24.2 2zM238.5 99.1c-1.9 0-3.7 0-5.6-.2-2.1-.2-3.2.6-3.8 2.5.9-19.7-1-39.1-6.1-58.2 3.9-1.8 8.2-1.8 12.3-2 6.1-.3 12.2-.1 18.3-.1 6.1 1.4 12.1-.1 18.1-.5 6.9-.4 13.9-.8 20.8.2 1.6 1 1.9 2.1.1 3.3-.9.6-1.9.9-2.9.7-6.2-1.4-8.9 2.8-12.1 6.9-9.4 12.1-17.7 25.1-27.9 36.7-.8.9-1.5 1.9-2 2.9-1.9 3.9-4.8 6.8-9.2 7.8zM94.2 50.9C78.9 54.3 64 58.3 50.6 66.8c-15.9 10.1-24.5 24.8-28 42.9-.2 1.1-.6 2.2-.9 3.3-2.9.3-5.1 1.6-6.4 4.4-.5 1.1-1.5 2-2.8 1.8-1.6-.4-1-1.9-.9-2.9.1-2.3-.5-4.6.3-6.9.2-8.4 1.4-16.6 4.2-24.5 6.3-18.8 19.2-31.1 37.4-38.5 12.7-5.1 25.9-8.2 39.4-10 4.5-.6 8.9-2 13.5-1.3.2 1.5-.3 3.1.8 4.4.2 2.3-1.8 2.2-3.1 2.9-3.7 2.4-8.1 3.8-9.9 8.5z"/><path class="st1" d="M316.5 232.9c1.6 2-.2 5 2 6.9 1.5-.1 1.4-1.3 1.7-2.2 3.1-8 10.1-12.9 15-19.5 7.1-9.7 14.9-18.8 21.6-28.9 1.9-2.9 4.2-5.5 6.5-8.1 2.9-3.2 5.4-6.5 3.8-11.2 7.1-.3 14.2-1.2 21-3.4 1.2.4 2.3.9 3.6 1.4-1.3 2.8-3.2 5-4.9 7.4-6.9 9.5-13.7 19.1-20.5 28.6-.3.4-.4.8-.7 1.1-11.7 11.2-20.2 25.1-30.2 37.7-5.1 6.4-10.5 12.7-14.7 19.8-.5.9-.9 2.1-2.1 1.8-1-.3-1.2-1.6-1.2-2.6-.1-3.1 0-6.1-.1-9.2 0-1.6.3-3.2-.8-4.7v-14.9zm-107.6 99.8c-2.4-3.3-1.4-5.8 1.1-8.8 8.7-10.7 16.9-21.7 24.9-32.9 3.5-4.8 6.8-9.8 11.4-13.7 2.2-1.9 2.8-4.1 2.8-6.9-.1-10.2 0-20.4 0-30.5 0-1.7-.3-3.5.7-5.1 0 23.8.2 47.7-.1 71.5-.1 8.1-4.6 14.3-11.4 18.6-8.9 5.6-18.9 7.8-29.4 7.8zm-84-78c-4.8-3.3-5.4-3.2-11.1 1.7-.9-1.3-.4-2.8-.4-4.1 0-17 0-34-.1-51 0-3.4.6-4.8 4.3-3.6 5.6 1.9 11.3 3.7 17.1 5.1 4.2 1 5.8 3.2 5.1 7.3-.2 1.1-.1 2.3-.2 3.5-.9 5.4.2 10.9-.7 16.4-.5 3-1.6 5.5-4 7.4-3.3 2.7-5.1 6.6-7.8 9.8-1 1.2-.8 2.7-.6 4.2.1 1.4.7 3.1-1.6 3.3zM94.2 50.9c-1.5-1.8-1.7-3.2.6-4.8 3.9-2.8 8-5 12.5-6.4 2.7 1.4 5.1.9 7.6-.8 14.9-9.8 29.9-19.5 46.3-26.7 7.6-3.3 15.5-3.9 23.4-1.9 5.1 1.2 9.8 3.4 13.5 7.5-.5.2-1.1.7-1.5.6-16-4.1-30.5.6-44.4 7.8-13.4 6.9-25.6 16-38.1 24.5-1.7 1.1-3.3 2.4-5.1 3.3-2.2 1.1-5.5 1.7-6.3-.5-1.5-4.5-4.2-2.8-6.9-2.5-.5-.1-1-.1-1.6-.1zm199.4-8.6c-13.4-.7-26.8 1.4-40.2.7-.4-2.1 1-3 2.5-3.5 4.2-1.3 6.9-4.6 11.2-7.6-9.3-.2-17.5 0-25.7-.1-2.1 0-4.5.5-5.8-2 2.9-.2 5.8-.5 8.7-.5 22.4-.2 44.8-1.2 67.2-.2 8.4.4 16.8 1.4 25 3.6 3.7 1.1 1.6 3 .1 3.7-6.4 2.8-11.9 8-19.5 7.3-6.5.8-13.1.4-19.6.3-1.6 0-3-.4-3.9-1.7zm113.6 67.4c-6.6-7.8-15.8-9.6-25.3-10.8-7.8-.8-15.7-.1-23.5-.3-.9-.1-1.4-.6-.9-1.4.7-1.2 2-1.6 3.4-1.7 1.7-.1 3.5-.3 5.2-.1 9.3 1.3 15.6-2.7 20.5-10.5 3.1-4.8 6.6-9.4 10-14.1 2.1-.9 3.4.3 4.8 1.6 2.2 2 3.2 5 6.1 6.3 5.2 6.9 8.6 14.7 11.2 22.9-1.2 6.1-6.5 9.9-11.5 8.1z"/><path class="st1" d="M235.6 29.8c9.9.1 19.8.1 29.7.2 1.2 0 2.3 0 3.5.1 1 .1 2.2.1 2.3 1.5.1 1.1-.9 1.4-1.6 1.8-5.6 2.8-9.9 7.8-16.1 9.7-8.3.3-16.6-.4-24.8.8-1.8.3-3.8.3-5.6-.6-1.3-3.5-2.5-7.1-4-10.6-1-2.3-.3-2.8 1.9-2.8 4.9 0 9.8-.1 14.7-.1zm82.5 12.4c3.3.2 6.1-.7 8.8-2.8 2.6-2 5.9-3 8.9-4.4 1.3-.6 2.2-1 .7-2.3 15.1 3.1 29.5 8 42 17.4.1 4.9-3.9 4.7-7 5.7-6.4-1.4-12.3-3.8-18.4-6.2-10.5-1.9-21-3.9-31.7-4.7-1.2-.1-2.3-.4-3.1-1.3-.4-.4-.4-.9-.2-1.4zM124.9 254.7c1.1-2.6-2.2-5.1-.1-7.8 2.5-3.1 4.5-6.9 7.5-9.5 5.2-4.4 6.9-9.6 6.6-16.1-.1-2.5-.7-5.2.7-7.7v70.1c-5.4-9.4-8.8-19.9-14.7-29zm157.1 3c-.2-.7-.4-.9-.4-1.2-.6-8.1-.6-8.2 7.3-9 5.3-.6 10.7-1 16.1-1.6 2.5-.3 3.4.8 3.4 3.2-.1 11.9 0 23.8-.5 35.9-1.5-6.3-6.1-11-8.3-17-.8-2.3-1.7-4.6-2.8-6.9-4.1-8.2-7.5-9-14.8-3.4zM144.6 11.1c-7.6 4.5-14.9 8.8-22.1 13.1-.6.4-1.3.8-2 .9-7.2.6-14.4 1.1-22 1.6 14.7-15.6 29.6-23.5 46.1-15.6zM11 124.3c.1 14.3.2 28.5.2 42.8V182c1.3.9 1.7 2.3 1.7 3.8.1 10.6.2 21.2 0 31.8 0 1.6-.7 3.1-.9 4.6 1.2-5.3 2.1-6.1 6-5.9.3 17.9-1.6 35.7-1.8 53.6 0 1-.3 2-.7 2.9-.5 1.1-.8 2.9-2.5 2.5-1.4-.3-1-1.9-1.1-3-.4-6.4.8-12.8-.7-19.1-1.4-35.1-1-70.2-.8-105.3.1-7.9-.4-15.8.6-23.6zm396.2-14.6c5.7-.1 7.6-5.4 11.5-8.1 3.8 9.5 5.8 19.4 6.1 29.7-.2.7-.2 2.4-1 1.6-2.4-2.4-3.9-.8-5.3.8-2.6 3-4.2-.6-6.3-.7 1.2-8.3-.4-16.1-5-23.3zm37.7-41.8c12.5-3.7 24.3-5.9 36.5-4.4 3.3.4 8.4.8 8.5 4.5 0 3.1-5 3.7-8.3 4.3-9.3 1.6-18.6.1-27.7-1.7-2.7-.5-5.4-.9-9-2.7zM226 121.8c1.6 1.7 3.8 1 5.7 1.4 3.7.7 5.2 2.6 4.9 6.3-.8 11.5-8.1 17.5-19.5 16.1-2.1-.3-2.3-1.3-2.3-2.9 5.2-6.2 8.9-13.2 11.2-20.9z"/><path class="st1" d="M371.5 54.4c2.8-.7 5.1-2.1 6.9-4.3 9 4.5 15.7 11.7 22.2 19.2 2.6 3 4.6 6.3 6.9 9.5-2.6.9-3-1.7-4.3-2.7-2-1.5-3.7-3.2-5.6-4.9-1.2-.4-2.6-.1-3.7-1-5.3-4.3-11.5-7.2-17.1-11.1-1.9-1.3-5.3-1.1-5.3-4.7zm-265-19.2C84.3 37.7 62.4 41.4 42.7 53c-11.1 6.6-19.2 15.9-24.3 27.8-.6 1.4-.8 3.1-2.3 4.1C20.3 68.6 30.4 57.2 45 49.5c19-9.9 39.7-12.9 60.6-15.2.3 0 .6.1.8.2.2.1.1.5.1.7zm315.7 30.7c3.3 0 6.7.1 10 0 2-.1 2.7.5 2.7 2.7s-1 2.4-2.7 2.4h-17.4c-.8 0-1.9-.1-2.5-.6-1.2-1-3-2-2.5-3.7.4-1.4 2.3-.7 3.5-.7 3.1-.2 6-.1 8.9-.1zm33 13.6c7.3.4 14.4 1.4 21.6 1.3 1.1 0 1.9.5 2.2 1.6.3 1.3-.2 2.3-1.2 3-1.4 1.1-3.1 1.4-4.9 1.5-7 .2-12.3-3.6-17.7-7.4zm0-22.7c5.2-4.7 10.3-7.7 16.9-6.8 1.9.3 4.1.9 4.1 3.2 0 2.7-2.5 1.8-4 2-5.3.5-10.6 1-17 1.6zm-147 247.8c.8 3.1 1 5.1 1.8 7 1.3 3.1.4 4.1-2.7 3.2-1.9-.5-3.9-1.1-6.4-1.8 2.7-2.6 5.1-4.7 7.3-8.4zm-176.1 6.6c3.2-1.7 5.2-4 6.9-6.6 1.1.8.8 1.8.8 2.5-.2 2.1 2 5.1.3 6-2.3 1.3-5.1-.6-8-1.9zM193 191.7c5.2 3.9 5.3 3.9.7 8.6-12.1 12.5-23.1 25.8-32.9 40.2-1.6 2.4-3.6 4.5-5.5 6.7-4.5 5.2-5 11.8-6.7 18.2v-45c.5-1.1 1.2-2.1 1.4-3.2 1.3-7.9 6.2-13.3 11.8-18.6 5.6-5.2 9.7-11.8 13.7-18.4.8-1.3 1.2-3.8 2.9-.6-1.9 5.4 1.7 10.9 7.8 11.6 2.2.4 4.5.4 6.8.5zM318.1 42.2v.8c1.7 1.9 1.1 4-.1 5.6-6.8 9.5-13.4 19.2-21.7 27.5-.5.5-1.1.9-1.9 1.1-4.1 0-8.1-.1-12.2-.1-6 .1-9.5 2.9-10.7 8.8-2.1 10.2-4.1 20.5-6.1 30.8-.5-.1-.9-.1-1-.3-4.2-10.6-12.6-15.4-23.5-16.6-.9-.1-1.7-.5-2.5-.7 11.6-12.2 20.7-26.3 30.9-39.7 3.7-4.8 7.9-9.2 10.6-14.8.9-1.8 2.6-1.5 4.2-1.6 3.1-.3 6.4.8 9.4-.8h24.6z"/><path class="st1" d="M294.5 77.2c-.4-3 2.5-3.6 3.9-5.4 5.7-7.5 11.5-14.9 17.2-22.4 1.5-1.9 2-4.2 2.6-6.4 12.2.4 24.2 1.7 35.9 5.3 1.5 2-.2 3.3-1.1 4.6-5.5 7.7-11.4 15-17.1 22.5-3.7 4.8-7 10-10.7 14.7-3.2 4.1-6.2 8.4-12.1 8.7-3.9 0-7.8-.2-11.7-.1-2.5.1-3-1-2.4-3.2.5-2.1.8-4.3 1.2-6.4 1.1-6.3 0-8.7-5.7-11.9z"/><path class="st1" d="M312.9 99c8.5-5.1 13.2-13.5 18.7-21.2 5.3-7.5 11.2-14.5 16.8-21.7 1.9-2.5 3.7-5.1 5.6-7.7 6 1.5 11.8 3.7 17.5 6.1 1.8 1.5 4.5 1.6 6.1 3.5 1 2.8-.1 5.2-1.8 7.2-7.8 9.2-14.7 19.1-21.7 28.9-2.2 3.1-5.7 3.6-8.8 5-6.8 3.1-6.5 10-8.4 16.1-3.1-13.1-13.5-14.7-24-16.2z"/><path class="st1" d="M345.3 99.1c-.1-.1-.2-.4-.2-.4 8.5-3.7 11.6-12.4 16.9-19 4-5 7.7-10.1 11.8-15 1.7-2 2.6-4.5 3.7-6.8 7.2 3.6 14.2 7.5 20.1 13.2-2.5 7.8-8.9 13-13.1 19.7-3.6 5.8-9 6.5-15 6.5-4 0-8.1-.8-12.1.7-3.7 1.5-7.7-.1-11.4.9-.1 0-.4.1-.7.2zm26.3 23.7c11.7.1 13.6 2.8 9.5 14-2.2 6-13 10.8-19 8.7-1.4-.5-1.2-1.5-1-2.4 1.2-6 2.3-12 3.6-18 .5-2.4.7-2.3 6.9-2.3zM159 290.6c-5.5 2.7-7.6 8.2-10.8 13.6-.7-4.4 2.5-7.4 2-11.1 1-2.6 2.3-5 4.2-7 1.1-.9 2.3-1.8 3.6-2.2 1.9-.5 3.6-.5 2.8 2.3-.7 1.5-1.2 3-1.8 4.4zm-26.1-14c-4.7-.4-5.9 3.4-7.7 6.4-.4.7-.4 2-1.6 1.5-.4-.2-.5-1.3-.7-1.9.7-1.9 1.2-3.9 2.1-5.7.9-1.8 1.7-4.1 3.9-4.3 2.6-.3 2.8 2.5 4 4z"/></svg>